# xmcd
#
# Track frame offsets:
# 150
# 12445
# 28612
# 42431
# 53801
# 68261
# 82443
# 96019
# 110472
# 125687
#
# Disc length: 1896 seconds
#
#
# Revision: 0
# Processed by: cddbd v1.5.1PL0 Copyright (c) Steve Scherf et al.
# Submitted via: FreeRIP 2.91 
#
DISCID=8207660a
DTITLE=varios - Boleros Inolvidables
DYEAR=2004
DGENRE=Blues
TTITLE0=Entrega Total
TTITLE1=Sabor a mi
TTITLE2=Usted
TTITLE3=Historia de un Amor
TTITLE4=Sombras Nada Mas
TTITLE5=Esta Noche la Paso Contigo
TTITLE6=Angustia
TTITLE7=Caminemos
TTITLE8=Nuestro Juaramento
TTITLE9=Mil Años
EXTD=
EXTT0=
EXTT1=
EXTT2=
EXTT3=
EXTT4=
EXTT5=
EXTT6=
EXTT7=
EXTT8=
EXTT9=
PLAYORDER=
